<?xml version="1.0" encoding="UTF-8" standalone="no"?>
<svg
   width="1024"
   height="1024"
   viewBox="0 0 1024 1024"
   version="1.1"
   id="svg37"
   sodipodi:docname="SindenPS-print safe.svg"
   inkscape:version="1.4.3 (0d15f75, 2025-12-25)"
   xmlns:inkscape="http://www.inkscape.org/namespaces/inkscape"
   xmlns:sodipodi="http://sodipodi.sourceforge.net/DTD/sodipodi-0.dtd"
   xmlns="http://www.w3.org/2000/svg"
   xmlns:svg="http://www.w3.org/2000/svg">
  <defs
     id="defs37" />
  <sodipodi:namedview
     id="namedview37"
     pagecolor="#ffffff"
     bordercolor="#000000"
     borderopacity="0.25"
     inkscape:showpageshadow="2"
     inkscape:pageopacity="0.0"
     inkscape:pagecheckerboard="0"
     inkscape:deskcolor="#d1d1d1"
     inkscape:zoom="0.75488281"
     inkscape:cx="511.33765"
     inkscape:cy="616.65201"
     inkscape:window-width="1920"
     inkscape:window-height="974"
     inkscape:window-x="-11"
     inkscape:window-y="1609"
     inkscape:window-maximized="1"
     inkscape:current-layer="svg37" />
  <path
     fill="#e92e2b"
     d="m 167.605,297.207 c 8.143,-0.441 18.626,-0.206 26.905,-0.211 l 46.418,-0.011 c -2.934,17.025 -8.079,37.224 -11.785,54.506 l -31.952,-4.849 c -8.639,-1.309 -36.725,-8.294 -35.413,6.925 0.575,6.673 10.692,9.89 15.958,11.91 26.91,10.326 51.462,18.584 41.041,53.47 -2.985,10.31 -4.069,23.625 -8.377,34.641 -1.778,4.552 -4.261,8.795 -7.357,12.576 -8.412,10.066 -19.078,14.745 -31.918,15.82 -27.673,0.528 -55.641,-0.281 -83.288,0.466 3.972,-16.424 8.334,-33.437 11.541,-49.974 17.992,0.034 36.062,1.349 54.139,1.307 5.623,-0.012 18.973,-0.781 18.287,-9.508 -0.536,-6.804 -10.848,-9.841 -16.3,-12.131 -10.334,-4.339 -23.116,-7.805 -31.944,-15.038 -4.903,-4.061 -8.008,-9.89 -8.645,-16.224 -1.316,-13.77 5.071,-40.163 9.135,-53.601 5.802,-19.187 24.786,-28.68 43.555,-30.074 z"
     id="path3" />
  <path
     fill="#e92e2b"
     d="m 745.699,296.536 50.935,0.01 c 25.537,0.004 56.935,-3.263 53.515,35.729 -0.49,5.593 -2.244,13.579 -3.686,19.049 -4.963,18.819 -6.043,40.976 -18.085,56.893 -6.941,8.816 -15.662,14.719 -26.397,17.733 -12.773,3.586 -26.22,0.611 -38.883,2.157 -1.344,1.439 -1.073,2.013 -1.589,4.283 -3.078,16.396 -6.845,33.321 -10.261,49.697 -14.762,-0.184 -29.822,-0.046 -44.608,-0.061 l 25.802,-121.038 c 4.286,-21.512 8.705,-42.996 13.257,-64.452 z"
     id="path4" />
  <path
     fill="#ffffff"
     d="m 779.389,340.504 c 5.212,-0.086 16.363,-0.973 20.34,1.548 3.336,4.78 0.367,14.86 -0.802,20.322 -1.535,7.17 -2.465,16.26 -8.258,21.2 -5.415,2.618 -14.259,1.934 -20.407,1.873 2.905,-13.102 7.177,-32.071 9.127,-44.943 z"
     id="path5" />
  <path
     fill="#e92e2b"
     d="m 917.731,296.717 c 18.607,-0.584 39.792,-0.099 58.604,-0.113 -2.575,14.878 -7.567,35.789 -11.49,50.434 -11.775,0 -23.711,-0.936 -35.313,-1.203 -8.146,-0.188 -24.55,-2.378 -24.009,9.535 0.318,6.98 9.681,9.569 14.935,11.934 11.519,5.184 24.294,8.876 33.812,17.476 12.009,10.964 8.19,25.315 5.345,39.086 -3.326,15.961 -4.88,32.772 -17.057,44.912 -14.952,14.908 -33.643,13.659 -53.183,13.567 l -60.884,-0.118 c 2.57,-15.118 7.022,-32.447 9.951,-48.047 1.255,0.059 2.51,0.102 3.766,0.128 9.316,0.137 18.758,-0.131 28.089,-0.109 10.284,0.025 20.652,0.465 30.872,-0.554 6.358,-0.633 11.856,-3.869 10.605,-11.062 -1.087,-6.248 -9.223,-7.75 -14.1,-9.821 -11.004,-4.293 -23.113,-7.452 -32.325,-15.162 -14.026,-11.938 -8.049,-29.758 -4.66,-44.874 6.54,-34.312 19.638,-54.559 57.042,-56.009 z"
     id="path6" />
  <path
     fill="#e92e2b"
     d="m 479.196,308.567 38.642,0.046 c -1.076,6.815 -3.807,17.204 -5.324,24.23 l -10.846,50.472 -12.086,55.151 c -3.117,14.467 -6.061,29.413 -9.834,43.693 -16.129,-0.341 -33.2,-0.06 -49.373,-0.034 -15.872,-0.022 -37.816,0.172 -37.178,-23.566 0.344,-12.805 5.227,-30.49 8.032,-43.543 5.02,-23.36 6.242,-57.509 36.382,-61.022 9.905,-1.147 21.723,-0.503 31.637,-0.46 3.205,-15.013 6.52,-30.003 9.948,-44.967 z"
     id="path7" />
  <path
     fill="#ffffff"
     d="m 447.046,387.572 c 4.132,-0.198 8.174,-0.078 12.304,0.002 l -8.089,39.301 c -1.176,5.838 -2.159,12.805 -3.62,18.389 -1.289,0.946 -3.211,0.66 -4.915,0.633 -2.49,-0.011 -5.528,0.224 -7.899,-0.472 -1.353,-0.398 -2.907,-1.35 -3.454,-2.711 -1.836,-4.568 7.441,-46.097 10.267,-51.498 1.055,-2.018 3.385,-2.95 5.406,-3.644 z"
     id="path8" />
  <path
     fill="#e92e2b"
     d="m 308.56,353.39 c 17.127,-0.255 34.317,0.075 51.448,-0.037 11.139,-0.073 22.374,-0.268 29.12,10.349 2.306,3.601 3.492,7.805 3.405,12.08 -0.092,8.633 -5.577,32.634 -7.596,42.23 -4.344,21.364 -8.858,42.692 -13.542,63.984 l -37.108,0.007 14.834,-71.397 c 1.225,-6.265 3.416,-13.638 3.963,-19.879 0.667,-7.625 -8.841,-6.596 -13.9,-6.396 -0.775,4.897 -1.638,9.924 -2.711,14.763 -6.08,27.416 -10.533,55.691 -17.19,82.939 l -37.639,-0.098 c 2.422,-14.807 6.893,-33.21 10.028,-48.108 z"
     id="path9" />
  <path
     fill="#e92e2b"
     d="m 554.257,353.209 c 15.828,-0.769 52.547,-4.06 50.299,21.192 -1.58,17.756 -5.959,38.994 -10.837,56.235 l -52.374,0.202 c -0.627,2.512 -1.352,5.082 -1.498,7.678 -0.111,1.978 0.243,4.522 1.799,5.932 3.995,3.623 40.486,2.117 48.124,2.082 -1.021,5.957 -2.524,12.602 -3.739,18.581 l -3.805,16.964 -37.547,0.017 c -7.471,-0.003 -15.386,0.506 -22.77,-0.687 -4.145,-0.67 -8.613,-1.946 -11.972,-4.542 -5.028,-3.885 -7.561,-10.073 -8.194,-16.263 -0.915,-8.948 13.188,-71.199 16.51,-81.518 1.472,-4.572 3.575,-9.771 6.742,-13.428 7.908,-9.135 17.587,-11.693 29.262,-12.445 z"
     id="path10" />
  <path
     fill="#ffffff"
     d="m 561.498,383.13 c 16.364,-1.196 11.333,10.15 9.123,21.335 l -6.871,0.009 -11.944,0.053 c 1.133,-8.107 1.021,-18.122 9.692,-21.397 z"
     id="path11" />
  <path
     fill="#e92e2b"
     d="m 627.723,353.096 c 13.47,0.187 26.942,0.237 40.413,0.153 13.36,0.003 30.436,-2.765 38.451,10.034 2.551,4.112 3.875,8.868 3.816,13.708 -0.089,8.475 -4.957,29.046 -6.919,38.308 -4.631,22.289 -9.458,44.537 -14.48,66.742 l -36.313,-0.081 15.624,-72.527 c 1.364,-5.654 3.181,-11.446 4.164,-17.144 1.629,-9.434 -7.747,-8.405 -13.687,-8.154 -6.344,32.771 -13.882,65.214 -20.63,97.906 l -38.225,-0.03 c 8.651,-42.136 20.385,-86.923 27.786,-128.915 z"
     id="path12" />
  <path
     fill="#e92e2b"
     d="m 247.709,365.106 c 12.771,-0.16 25.952,0.034 38.799,-0.043 -8.581,38.792 -16.418,78.216 -25.563,116.84 -1.605,0.321 -10.426,0.214 -12.552,0.214 l -25.822,0.061 c 8.847,-36.508 18.121,-80.056 25.138,-117.072 z"
     id="path13" />
  <path
     fill="#e92e2b"
     d="m 256.214,318.35 c 13.123,-0.076 26.246,-0.034 39.368,0.126 -2.219,10.238 -4.371,20.491 -6.455,30.757 -13.163,-0.256 -26.328,-0.307 -39.492,-0.154 2.349,-10.209 4.542,-20.453 6.579,-30.729 z"
     id="path27" />
</svg>
